<?xml version="1.0" standalone="no"?>
<!DOCTYPE svg PUBLIC "-//W3C//DTD SVG 20010904//EN"
 "http://www.w3.org/TR/2001/REC-SVG-20010904/DTD/svg10.dtd">
<svg version="1.0" xmlns="http://www.w3.org/2000/svg"
 width="512.000000pt" height="512.000000pt" viewBox="0 0 512.000000 512.000000"
 preserveAspectRatio="xMidYMid meet">
<metadata>
Created by potrace 1.11, written by Peter Selinger 2001-2013
</metadata>
<g transform="translate(0.000000,512.000000) scale(0.100000,-0.100000)"
fill="#000000" stroke="none">
<path d="M2236 5104 c-748 -101 -1403 -508 -1809 -1121 -289 -437 -427 -896
-427 -1423 0 -426 82 -778 269 -1150 82 -162 218 -380 239 -380 4 0 466 918
1027 2040 561 1122 1022 2040 1025 2040 3 0 464 -918 1025 -2040 561 -1122
1023 -2040 1027 -2040 21 0 157 218 239 380 187 372 269 724 269 1150 0 454
-100 848 -313 1235 -396 721 -1105 1202 -1930 1310 -146 19 -500 19 -641 -1z"/>
<path d="M2272 3105 l-282 -565 570 0 570 0 -282 565 c-156 311 -285 565 -288
565 -3 0 -132 -254 -288 -565z"/>
<path d="M1335 1229 c-285 -569 -344 -693 -334 -706 22 -26 242 -168 350 -226
277 -148 580 -244 889 -282 163 -20 477 -20 640 0 310 38 612 134 890 283 104
55 328 201 350 227 8 10 -65 166 -335 704 l-345 691 -880 0 -880 0 -345 -691z"/>
</g>
</svg>
