<?xml version="1.0" standalone="no"?>
<!DOCTYPE svg PUBLIC "-//W3C//DTD SVG 20010904//EN"
 "http://www.w3.org/TR/2001/REC-SVG-20010904/DTD/svg10.dtd">
<svg version="1.0" xmlns="http://www.w3.org/2000/svg"
 width="512.000000pt" height="512.000000pt" viewBox="0 0 512.000000 512.000000"
 preserveAspectRatio="xMidYMid meet">
<metadata>
Created by potrace 1.11, written by Peter Selinger 2001-2013
</metadata>
<g transform="translate(0.000000,512.000000) scale(0.100000,-0.100000)"
fill="#000000" stroke="none">
<path d="M2235 5104 c-646 -87 -1216 -399 -1637 -894 -314 -370 -518 -836
-583 -1333 -20 -156 -20 -478 0 -634 42 -318 149 -648 298 -918 57 -104 178
-287 192 -292 6 -2 469 915 1030 2037 561 1122 1022 2040 1025 2040 3 0 464
-918 1025 -2040 561 -1122 1024 -2039 1030 -2037 14 5 135 188 192 292 149
270 256 600 298 918 20 156 20 478 0 634 -85 648 -397 1221 -895 1645 -370
314 -836 518 -1333 583 -147 19 -501 19 -642 -1z"/>
<path d="M2272 3115 c-155 -311 -282 -567 -282 -570 0 -3 257 -5 570 -5 l570
0 -285 570 c-157 314 -286 570 -288 570 -1 0 -129 -254 -285 -565z"/>
<path d="M1335 1229 c-190 -379 -343 -694 -340 -699 3 -5 67 -50 143 -101 310
-207 671 -347 1052 -406 163 -25 577 -25 740 0 272 42 513 118 755 236 136 67
336 189 423 259 l24 18 -346 692 -346 692 -880 0 -880 0 -345 -691z"/>
</g>
</svg>
