<?xml version="1.0" standalone="no"?>
<!DOCTYPE svg PUBLIC "-//W3C//DTD SVG 20010904//EN"
 "http://www.w3.org/TR/2001/REC-SVG-20010904/DTD/svg10.dtd">
<svg version="1.0" xmlns="http://www.w3.org/2000/svg"
 width="512.000000pt" height="512.000000pt" viewBox="0 0 512.000000 512.000000"
 preserveAspectRatio="xMidYMid meet">
<metadata>
Created by potrace 1.11, written by Peter Selinger 2001-2013
</metadata>
<g transform="translate(0.000000,512.000000) scale(0.100000,-0.100000)"
fill="#000000" stroke="none">
<path d="M2226 5104 c-893 -115 -1674 -709 -2029 -1545 -89 -210 -153 -449
-182 -679 -20 -163 -20 -477 0 -640 132 -1070 931 -1948 1988 -2184 339 -76
775 -76 1114 0 468 104 881 328 1227 663 425 413 689 941 761 1521 20 163 20
477 0 640 -143 1158 -1067 2082 -2225 2225 -155 19 -502 18 -654 -1z m324
-138 c0 -115 -53 -414 -102 -576 -93 -310 -260 -624 -464 -880 -308 -384 -768
-691 -1254 -838 -163 -49 -461 -102 -577 -102 l-46 0 6 138 c14 325 110 676
269 982 268 516 716 924 1255 1145 255 104 571 172 811 174 l102 1 0 -44z
m419 14 c676 -117 1255 -494 1636 -1065 239 -358 385 -795 402 -1207 l6 -138
-46 0 c-116 0 -414 53 -577 102 -310 93 -624 260 -880 464 -384 308 -691 768
-838 1254 -49 163 -102 461 -102 577 l0 46 138 -6 c75 -3 193 -15 261 -27z
m-344 -1047 c140 -295 299 -518 544 -764 246 -245 469 -404 764 -544 69 -33
126 -62 126 -65 0 -3 -57 -32 -126 -65 -295 -140 -518 -299 -764 -544 -245
-246 -404 -469 -544 -764 -33 -69 -62 -126 -65 -126 -3 0 -32 57 -65 126 -140
295 -299 518 -544 764 -246 245 -469 404 -764 544 -69 33 -126 62 -126 65 0 3
57 32 126 65 295 140 518 299 764 544 245 246 404 469 544 764 33 69 62 126
65 126 3 0 32 -57 65 -126z m-2308 -1398 c474 -62 919 -252 1293 -551 384
-308 691 -768 838 -1254 49 -163 102 -461 102 -577 l0 -46 -137 6 c-578 24
-1162 286 -1588 712 -426 426 -688 1010 -712 1588 l-6 137 46 0 c25 0 99 -7
164 -15z m4690 -122 c-24 -578 -286 -1162 -712 -1588 -426 -426 -1010 -688
-1587 -712 l-138 -6 0 46 c0 116 53 414 102 577 93 310 260 624 464 880 313
390 786 703 1275 844 176 50 418 93 543 95 l59 1 -6 -137z"/>
</g>
</svg>
