<svg xmlns="http://www.w3.org/2000/svg" xmlns:xlink="http://www.w3.org/1999/xlink" viewBox="0 0 1366 648"><defs><style>.cls-1,.cls-19,.cls-2{fill:none;}.cls-10,.cls-11,.cls-2,.cls-8,.cls-9{stroke:#ff4242;}.cls-10,.cls-11,.cls-19,.cls-2,.cls-8,.cls-9{stroke-miterlimit:10;}.cls-2{stroke-width:0.95px;}.cls-3{fill:#b5ffee;}.cls-4{fill:#15d1f2;}.cls-5{fill:#71e851;}.cls-6{fill:#d9e06a;}.cls-7{fill:#ff4242;}.cls-8{stroke-width:0.79px;}.cls-10,.cls-11,.cls-8,.cls-9{fill:url(#New_Pattern_Swatch_1);}.cls-9{stroke-width:0.8px;}.cls-10{stroke-width:0.86px;}.cls-11{stroke-width:0.77px;}.cls-12{fill:#fff;}.cls-13{fill:url(#linear-gradient);}.cls-14{fill:url(#linear-gradient-2);}.cls-15{fill:#ccc;}.cls-16{fill:#666;}.cls-17{fill:#b3b3b3;}.cls-18{fill:#f2f2f2;}.cls-19{stroke:#71e851;stroke-width:10px;}.cls-20{fill:url(#linear-gradient-3);}.cls-21{fill:url(#linear-gradient-4);}.cls-22{opacity:0.8;fill:url(#linear-gradient-5);}</style><pattern id="New_Pattern_Swatch_1" data-name="New Pattern Swatch 1" width="1.48" height="71.95" patternUnits="userSpaceOnUse" viewBox="0 0 1.48 71.95"><rect class="cls-1" width="1.48" height="71.95"/><polygon class="cls-2" points="0.47 71.47 0.48 71.47 0.48 0.47 0.47 0.47 0.47 71.47"/><polygon class="cls-1" points="1.47 71.47 1.48 71.47 1.48 0.47 1.47 0.47 1.47 71.47"/></pattern><linearGradient id="linear-gradient" x1="906.68" y1="116.97" x2="906.68" y2="191.39" gradientTransform="matrix(0.82, 0.57, -0.57, 0.82, 191.29, -477.37)" gradientUnits="userSpaceOnUse"><stop offset="0" stop-color="#fbb03b"/><stop offset="1" stop-color="#fbb03b" stop-opacity="0"/></linearGradient><linearGradient id="linear-gradient-2" x1="906.68" y1="161.62" x2="906.68" y2="116.97" gradientTransform="matrix(0.82, 0.57, -0.57, 0.82, 191.29, -477.37)" gradientUnits="userSpaceOnUse"><stop offset="0" stop-color="#ff4242" stop-opacity="0"/><stop offset="0.52" stop-color="#ff4242" stop-opacity="0.4"/><stop offset="1" stop-color="#ff4242"/></linearGradient><linearGradient id="linear-gradient-3" x1="555.02" y1="620.23" x2="791.9" y2="483.46" gradientUnits="userSpaceOnUse"><stop offset="0" stop-color="#e6e6e6"/><stop offset="0.57" stop-color="#f2f2f2"/><stop offset="0.65" stop-color="#f2f2f2" stop-opacity="0.96"/><stop offset="0.79" stop-color="#f2f2f2" stop-opacity="0.86"/><stop offset="0.86" stop-color="#f2f2f2" stop-opacity="0.8"/></linearGradient><linearGradient id="linear-gradient-4" x1="337.33" y1="473.9" x2="623.7" y2="639.24" gradientUnits="userSpaceOnUse"><stop offset="0.09" stop-color="#f2f2f2" stop-opacity="0.8"/><stop offset="0.7" stop-color="#f2f2f2"/><stop offset="1" stop-color="#e6e6e6"/></linearGradient><linearGradient id="linear-gradient-5" x1="588.43" y1="551.51" x2="803.68" y2="178.67" xlink:href="#linear-gradient-3"/></defs><title>homegraphic</title><g id="Layer_2" data-name="Layer 2"><g id="Art_Layer" data-name="Art Layer"><g id="Background"><g id="Sky"><rect class="cls-3" width="1366" height="510"/></g><g id="Water"><rect class="cls-4" y="510" width="1366" height="138"/></g></g><g id="Land"><polygon class="cls-5" points="1366 479.88 1366 648 1127.99 648 1162.07 619.26 1114.11 598.65 1124.65 591.79 1087.24 579.57 1039.27 562.02 1022 542.94 1067.1 523.1 1076.68 523.1 1116.98 506.3 1131.37 511.64 1160.16 506.3 1200.45 513.18 1286.79 481.88 1315.58 475.01 1366 479.88"/><polygon class="cls-5" points="809.34 556.1 821.3 583.13 759.5 608.36 733.59 623.67 718.63 647.1 0 647.1 0 519.48 32 520.96 58 504.74 77 504.74 109 520.96 160 533.57 224 504.74 247 511.05 280 504.74 295 488.52 323 496.63 386 511.05 444 490.33 482 504.74 541 496.63 567.99 482.23 701.91 484.92 805.61 474.11 887.48 509.25 911.5 539.88 809.34 556.1"/><polygon class="cls-6" points="567.99 482.23 541 496.63 482 504.74 444 490.33 386 511.05 323 496.63 295 488.52 280 504.74 247 511.05 224 504.74 160 533.57 109 520.96 77 504.74 58 504.74 32 520.96 0 519.48 0 429.06 33.84 410.14 75.32 431.76 115.71 418.25 196.49 375 284.91 407.44 338.4 395.72 449.75 455.19 497.78 434.46 567.64 482.22 567.99 482.23"/><rect class="cls-7" x="883.38" y="535.29" width="210" height="2.14"/><rect class="cls-7" x="941.01" y="501" width="1.87" height="50"/><rect class="cls-7" x="1034.34" y="501" width="1.87" height="50"/><path class="cls-8" d="M941,503.14v32.14H895.28C920.53,535.29,941,520.9,941,503.14Z"/><path class="cls-9" d="M988.61,535.29H942.88V503.14h0C943.13,520.93,963.51,535.29,988.61,535.29Z"/><path class="cls-10" d="M1033.88,503.14v32.14H988.61C1011.63,535.29,1030.69,521.32,1033.88,503.14Z"/><path class="cls-11" d="M1078.21,535.26v0h-42V503.14h0C1036.45,520.49,1055,534.57,1078.21,535.26Z"/></g><g id="Clouds"><path class="cls-12" d="M1366,328H1250s-64-3.62-64-30.76S1214,252,1253,252c27.46,0,32,13.57,32,13.57s6.76-11,43-32.57c38-22.62,38-6.33,38-6.33Z"/><path class="cls-12" d="M190,284l242-1s189,4,213-27c18-23.27-11-51-35-52s-55,8-55,8-6-16-45-40c-38.41-23.64-96,1-96,1s-18-37-78-37c-58.69,0-101,61-101,61s-48-11-66,25C169,222,135,284,190,284Z"/></g><g id="Rocket"><path class="cls-13" d="M864.62,158c-12.56,17.94-26.92,32.32-40.39,41.47,4-15.79,12.59-34.2,25.15-52.14,3.39-4.84,6.92-9.44,10.52-13.73l14,9.82C871.12,148.26,868,153.15,864.62,158Z"/><path class="cls-14" d="M874.5,143.88l0,0-15.24-10.67c4.29,3-3.7,21.83-17.84,42C855.24,155.5,869.82,141.72,874.5,143.88Z"/><rect class="cls-15" x="852.8" y="136.76" width="22.33" height="11.16" transform="translate(237.89 -469.81) rotate(35)"/><path class="cls-16" d="M880,174a22.33,22.33,0,0,0-5.48-31.1l12.81-18.29C897.39,131.67,894.11,153.79,880,174Z"/><path class="cls-16" d="M828.75,138.13a22.33,22.33,0,0,1,31.1-5.48l12.81-18.29C862.56,107.29,842.9,117.93,828.75,138.13Z"/><path class="cls-17" d="M921.73,67.76l-2.85,15.8a5,5,0,0,1-7.79,3.21l-11-7.71a5,5,0,0,1,.35-8.42l13.87-8.08A5,5,0,0,1,921.73,67.76Z"/><rect class="cls-7" x="878.93" y="70.23" width="18.61" height="74.42" transform="translate(222.26 -490.04) rotate(35)"/><ellipse class="cls-7" cx="880.61" cy="102.1" rx="37.21" ry="9.3" transform="translate(291.88 764.89) rotate(-55)"/><ellipse class="cls-7" cx="895.85" cy="112.77" rx="37.21" ry="9.3" transform="translate(289.64 781.93) rotate(-55)"/><circle class="cls-16" cx="894.64" cy="98.29" r="9.3" transform="translate(300.98 774.76) rotate(-55)"/><circle class="cls-18" cx="894.64" cy="98.29" r="7.44" transform="translate(300.98 774.76) rotate(-55)"/><rect class="cls-1" x="840.74" y="44.74" width="63.26" height="171.17" transform="translate(232.52 -476.8) rotate(35)"/><polyline class="cls-19" points="951.65 60.09 1011.65 120.31 951.65 180.09"/><polyline class="cls-19" points="796.65 60.09 736.65 120.31 796.65 180.09"/><path class="cls-20" d="M820,560c-3.62,28.84-39.88,39.83-39.88,39.83H566.21s-39.88-1.38-39.88-42.57q0-3.27.17-6.05a42.94,42.94,0,0,1,2.12-11.69c1.5-4.14,3.69-6.65,6.43-8.18,3.23-1.81,7.21-2.25,11.74-2.39,5.92-.19,11.7-7.53,18.36-16.08,2.36-3,4.82-6.21,7.44-9.28,5.22-6.1,11-11.8,17.8-15,20.76-9.82,33.26-9.65,40.65-6.79a20,20,0,0,1,4.43,2.38,15.54,15.54,0,0,1,5.67,7.16s30.23-61.8,76.15-35.72c45.23,25.69,23.68,56.7,23,57.67,1-.85,33.93-29.31,52-13.72C817.62,521.52,823.67,531.14,820,560Z"/><path class="cls-21" d="M639.68,599.81A102.58,102.58,0,0,1,615.17,611H381.64s-106.15-29.12-77.84-79c25.53-45,50.07-25.78,54.66-21.55-4-8.72,6.2-90.49,73.61-67.31,24.21,8.33,30.26,37.47,30.26,37.47s46.83-34.06,89.59-1.4a75.57,75.57,0,0,1,13.63,13.33,68,68,0,0,1,5,7.38c.72,1.22,1.39,2.43,2,3.66a63.34,63.34,0,0,1,3.57,8.51c.22.66.44,1.32.63,2a65.13,65.13,0,0,1,1.75,31.76,88.91,88.91,0,0,1,17.72-8.21,68.12,68.12,0,0,1,20.46-3.8c12.61-.2,25.89,4.16,35.66,18.93C667.1,575,654.17,590.42,639.68,599.81Z"/><path class="cls-22" d="M828.63,193.08,616.72,533.79a68.12,68.12,0,0,0-20.46,3.8,88.91,88.91,0,0,0-17.72,8.21A65.13,65.13,0,0,0,576.79,514Z"/></g></g></g></svg>