<svg xmlns="http://www.w3.org/2000/svg" xmlns:xlink="http://www.w3.org/1999/xlink" viewBox="0 0 1367 480"><defs><style>.cls-1,.cls-19,.cls-2{fill:none;}.cls-10,.cls-11,.cls-2,.cls-8,.cls-9{stroke:#ff4242;}.cls-10,.cls-11,.cls-19,.cls-2,.cls-8,.cls-9{stroke-miterlimit:10;}.cls-2{stroke-width:0.95px;}.cls-3{fill:#b5ffee;}.cls-4{fill:#15d1f2;}.cls-5{fill:#71e851;}.cls-6{fill:#d9e06a;}.cls-7{fill:#ff4242;}.cls-8{stroke-width:0.79px;}.cls-10,.cls-11,.cls-8,.cls-9{fill:url(#New_Pattern_Swatch_1);}.cls-9{stroke-width:0.8px;}.cls-10{stroke-width:0.86px;}.cls-11{stroke-width:0.77px;}.cls-12{fill:#fff;}.cls-13{fill:url(#linear-gradient);}.cls-14{fill:url(#linear-gradient-2);}.cls-15{fill:#ccc;}.cls-16{fill:#666;}.cls-17{fill:#b3b3b3;}.cls-18{fill:#f2f2f2;}.cls-19{stroke:#71e851;stroke-width:10px;}.cls-20{fill:url(#linear-gradient-3);}.cls-21{fill:url(#linear-gradient-4);}.cls-22{opacity:0.8;fill:url(#linear-gradient-5);}</style><pattern id="New_Pattern_Swatch_1" data-name="New Pattern Swatch 1" width="1.48" height="71.95" patternUnits="userSpaceOnUse" viewBox="0 0 1.48 71.95"><rect class="cls-1" width="1.48" height="71.95"/><polygon class="cls-2" points="0.47 71.47 0.48 71.47 0.48 0.47 0.47 0.47 0.47 71.47"/><polygon class="cls-1" points="1.47 71.47 1.48 71.47 1.48 0.47 1.47 0.47 1.47 71.47"/></pattern><linearGradient id="linear-gradient" x1="882.46" y1="103.79" x2="882.46" y2="178.21" gradientTransform="matrix(0.82, 0.57, -0.57, 0.82, 141.57, -493.68)" gradientUnits="userSpaceOnUse"><stop offset="0" stop-color="#fbb03b"/><stop offset="1" stop-color="#fbb03b" stop-opacity="0"/></linearGradient><linearGradient id="linear-gradient-2" x1="882.46" y1="148.44" x2="882.46" y2="103.79" gradientTransform="matrix(0.82, 0.57, -0.57, 0.82, 141.57, -493.68)" gradientUnits="userSpaceOnUse"><stop offset="0" stop-color="#ff4242" stop-opacity="0"/><stop offset="0.52" stop-color="#ff4242" stop-opacity="0.4"/><stop offset="1" stop-color="#ff4242"/></linearGradient><linearGradient id="linear-gradient-3" x1="568.02" y1="483.23" x2="804.9" y2="346.46" gradientUnits="userSpaceOnUse"><stop offset="0" stop-color="#e6e6e6"/><stop offset="0.57" stop-color="#f2f2f2"/><stop offset="0.65" stop-color="#f2f2f2" stop-opacity="0.96"/><stop offset="0.79" stop-color="#f2f2f2" stop-opacity="0.86"/><stop offset="0.86" stop-color="#f2f2f2" stop-opacity="0.8"/></linearGradient><linearGradient id="linear-gradient-4" x1="350.33" y1="336.9" x2="636.7" y2="502.24" gradientUnits="userSpaceOnUse"><stop offset="0.09" stop-color="#f2f2f2" stop-opacity="0.8"/><stop offset="0.7" stop-color="#f2f2f2"/><stop offset="1" stop-color="#e6e6e6"/></linearGradient><linearGradient id="linear-gradient-5" x1="594.18" y1="410.33" x2="749.12" y2="141.97" xlink:href="#linear-gradient-3"/></defs><title>Asset 6</title><g id="Layer_2" data-name="Layer 2"><g id="Art_Layer" data-name="Art Layer"><g id="Background"><g id="Sky"><rect class="cls-3" x="1" width="1366" height="423"/></g><g id="Water"><rect class="cls-4" y="342" width="1366" height="138"/></g></g><g id="Land"><polygon class="cls-5" points="1366 311.88 1366 480 1127.99 480 1162.07 451.26 1114.11 430.65 1124.65 423.79 1087.24 411.57 1039.27 394.02 1022 374.94 1067.1 355.1 1076.68 355.1 1116.98 338.3 1131.37 343.64 1160.16 338.3 1200.45 345.18 1286.79 313.88 1315.58 307.01 1366 311.88"/><polygon class="cls-5" points="809.34 388.1 821.3 415.13 759.5 440.36 733.59 455.67 718.63 479.1 0 479.1 0 351.48 32 352.96 58 336.74 77 336.74 109 352.96 160 365.57 224 336.74 247 343.05 280 336.74 295 320.52 323 328.63 386 343.05 444 322.33 482 336.74 541 328.63 567.99 314.23 701.91 316.92 805.61 306.11 887.48 341.25 911.5 371.88 809.34 388.1"/><polygon class="cls-6" points="567.99 314.23 541 328.63 482 336.74 444 322.33 386 343.05 323 328.63 295 320.52 280 336.74 247 343.05 224 336.74 160 365.57 109 352.96 77 336.74 58 336.74 32 352.96 0 351.48 0 261.06 33.84 242.14 75.32 263.76 115.71 250.25 196.49 207 284.91 239.44 338.4 227.72 449.75 287.19 497.78 266.46 567.64 314.22 567.99 314.23"/><rect class="cls-7" x="883.38" y="367.29" width="210" height="2.14"/><rect class="cls-7" x="941.01" y="333" width="1.87" height="50"/><rect class="cls-7" x="1034.34" y="333" width="1.87" height="50"/><path class="cls-8" d="M941,335.14v32.14H895.28C920.53,367.29,941,352.9,941,335.14Z"/><path class="cls-9" d="M988.61,367.29H942.88V335.14h0C943.13,352.93,963.51,367.29,988.61,367.29Z"/><path class="cls-10" d="M1033.88,335.14v32.14H988.61C1011.63,367.29,1030.69,353.32,1033.88,335.14Z"/><path class="cls-11" d="M1078.21,367.26v0h-42V335.14h0C1036.45,352.49,1055,366.57,1078.21,367.26Z"/></g><g id="Clouds"><path class="cls-12" d="M1367,241H1251s-64-3.62-64-30.76S1215,165,1254,165c27.46,0,32,13.57,32,13.57s6.76-11,43-32.57c38-22.62,38-6.33,38-6.33Z"/><path class="cls-12" d="M191,197l242-1s189,4,213-27c18-23.27-11-51-35-52s-55,8-55,8-6-16-45-40c-38.41-23.64-96,1-96,1s-18-37-78-37c-58.69,0-101,61-101,61s-48-11-66,25C170,135,136,197,191,197Z"/></g><g id="Rocket"><path class="cls-13" d="M802.62,117c-12.56,17.94-26.92,32.32-40.39,41.47,4-15.79,12.59-34.2,25.15-52.14,3.39-4.84,6.92-9.44,10.52-13.73l14,9.82C809.12,107.26,806,112.15,802.62,117Z"/><path class="cls-14" d="M812.5,102.88l0,0L797.29,92.16c4.29,3-3.7,21.83-17.84,42C793.24,114.5,807.82,100.72,812.5,102.88Z"/><rect class="cls-15" x="790.8" y="95.76" width="22.33" height="11.16" transform="translate(203.16 -441.66) rotate(35)"/><path class="cls-16" d="M818,133a22.33,22.33,0,0,0-5.48-31.1L825.29,83.6C835.39,90.67,832.11,112.79,818,133Z"/><path class="cls-16" d="M766.75,97.13a22.33,22.33,0,0,1,31.1-5.48l12.81-18.29C800.56,66.29,780.9,76.93,766.75,97.13Z"/><path class="cls-17" d="M859.73,26.76l-2.85,15.8a5,5,0,0,1-7.79,3.21l-11-7.71a5,5,0,0,1,.35-8.42l13.87-8.08A5,5,0,0,1,859.73,26.76Z"/><rect class="cls-7" x="816.93" y="29.23" width="18.61" height="74.42" transform="translate(187.53 -461.89) rotate(35)"/><ellipse class="cls-7" cx="818.61" cy="61.1" rx="37.21" ry="9.3" transform="translate(299.03 696.62) rotate(-55)"/><ellipse class="cls-7" cx="833.85" cy="71.77" rx="37.21" ry="9.3" transform="translate(296.78 713.66) rotate(-55)"/><circle class="cls-16" cx="832.64" cy="57.29" r="9.3" transform="translate(308.13 706.49) rotate(-55)"/><circle class="cls-18" cx="832.64" cy="57.29" r="7.44" transform="translate(308.13 706.49) rotate(-55)"/><rect class="cls-1" x="778.74" y="3.74" width="63.26" height="171.17" transform="translate(197.79 -448.66) rotate(35)"/><polyline class="cls-19" points="889.65 19.09 949.65 79.31 889.65 139.09"/><polyline class="cls-19" points="734.65 19.09 674.65 79.31 734.65 139.09"/><path class="cls-20" d="M833,423c-3.62,28.84-39.88,39.83-39.88,39.83H579.21s-39.88-1.38-39.88-42.57q0-3.27.17-6.05a42.94,42.94,0,0,1,2.12-11.69c1.5-4.14,3.69-6.65,6.43-8.18,3.23-1.81,7.21-2.25,11.74-2.39,5.92-.19,11.7-7.53,18.36-16.08,2.36-3,4.82-6.21,7.44-9.28,5.22-6.1,11-11.8,17.8-15,20.76-9.82,33.26-9.65,40.65-6.79a20,20,0,0,1,4.43,2.38,15.54,15.54,0,0,1,5.67,7.16s30.23-61.8,76.15-35.72c45.23,25.69,23.68,56.7,23,57.67,1-.85,33.93-29.31,52-13.72C830.62,384.52,836.67,394.14,833,423Z"/><path class="cls-21" d="M652.68,462.81A102.58,102.58,0,0,1,628.17,474H394.64s-106.15-29.12-77.84-79c25.53-45,50.07-25.78,54.66-21.55-4-8.72,6.2-90.49,73.61-67.31,24.21,8.33,30.26,37.47,30.26,37.47s46.83-34.06,89.59-1.4a75.57,75.57,0,0,1,13.63,13.33,68,68,0,0,1,5,7.38c.72,1.22,1.39,2.43,2,3.66a63.34,63.34,0,0,1,3.57,8.51c.22.66.44,1.32.63,2l.09.3a65.06,65.06,0,0,1,1.66,31.46,88.91,88.91,0,0,1,17.72-8.21c1.12-.38,2.28-.74,3.48-1.09a65.07,65.07,0,0,1,17-2.71c12.61-.2,25.89,4.16,35.66,18.93C680.1,438,667.17,453.42,652.68,462.81Z"/><path class="cls-22" d="M766.63,152.08,612.74,399.5c-1.2.35-2.36.71-3.48,1.09a88.91,88.91,0,0,0-17.72,8.21,65.06,65.06,0,0,0-1.66-31.46Z"/></g></g></g></svg>