<svg xmlns="http://www.w3.org/2000/svg" viewBox="0 0 512 512"><defs><style>.cls-1{fill:#3f484c;}</style></defs><title>star</title><g id="Layer_2" data-name="Layer 2"><g id="Layer_1-2" data-name="Layer 1"><path class="cls-1" d="M256,10a246.07,246.07,0,0,1,95.75,472.67A246.07,246.07,0,0,1,160.25,29.33,244.45,244.45,0,0,1,256,10m0-10C114.62,0,0,114.62,0,256S114.62,512,256,512,512,397.38,512,256,397.38,0,256,0Z"/><path class="cls-1" d="M256,103.17A277.63,277.63,0,0,0,408.83,256,277.63,277.63,0,0,0,256,408.83,277.63,277.63,0,0,0,103.17,256,277.63,277.63,0,0,0,256,103.17M256,0C256,141.38,141.38,256,0,256c141.38,0,256,114.62,256,256,0-141.38,114.62-256,256-256C370.62,256,256,141.38,256,0Z"/></g></g></svg>